<?xml version="1.0" encoding="utf-8"?>
<!-- Generator: Adobe Illustrator 21.0.0, SVG Export Plug-In . SVG Version: 6.00 Build 0)  -->
<svg version="1.1" id="Layer_1" xmlns="http://www.w3.org/2000/svg" xmlns:xlink="http://www.w3.org/1999/xlink" x="0px" y="0px"
	 viewBox="0 0 600 250" style="enable-background:new 0 0 600 250;" xml:space="preserve">
<style type="text/css">
	.st0{fill:#32423B;}
</style>
<title>Artboard</title>
<desc>Created with Sketch.</desc>
<g id="Page-1">
	<g id="Artboard">
		<g id="appstorm-logo-envato" transform="translate(50.000000, 79.000000)">
			<path id="Shape" class="st0" d="M45.8,39.7c0-11.8-4.4-24-22.3-24c-7.4,0-14.4,2.1-19.3,5.2l2.4,7c4.1-2.7,9.8-4.4,15.3-4.4
				c12,0,13.3,8.7,13.3,13.6v1.2C12.6,38.3,0,46,0,60.2c0,8.5,6.1,16.9,18,16.9c8.4,0,14.7-4.1,17.9-8.7h0.4l0.8,7.4h9.7
				c-0.7-4-1-9-1-14.1V39.7L45.8,39.7z M35.5,56c0,1.1-0.2,2.3-0.6,3.4c-1.7,5-6.6,9.8-14.2,9.8c-5.5,0-10.1-3.3-10.1-10.2
				c0-11.4,13.2-13.5,24.9-13.2V56z"/>
			<path id="Shape_1_" class="st0" d="M90,15.7c-10.1,0-17.4,4.2-22,11.4h-0.3l-0.5-10.1h-8.4l-0.1,19.2v54.4h10V67.9H69
				c3.7,5.8,10.9,9.2,19.1,9.2c14.6,0,28.2-10.4,28.2-31.5C116.3,27.7,105,15.7,90,15.7z M86.2,68.7c-8.1,0-14.9-5.1-16.9-12.5
				c-0.3-1.3-0.5-2.8-0.5-4.4V41.8c0-1.5,0.4-3,0.8-4.4c2.2-8,9.3-13.2,17-13.2C98.5,24.2,105,34.3,105,46
				C105,59.5,98.1,68.7,86.2,68.7z"/>
			<path id="Shape_2_" class="st0" d="M258.2,41.4c-6.3-2.3-9.7-4.2-10.8-7.5l2.5-8.1c1.7-1.3,4-2.1,6.9-2.1c5.5,0,9.7,1.9,12,3.3
				l2.7-7.6c-3.3-1.9-8.5-3.6-14.4-3.6c-1.4,0-2.8,0.1-4.1,0.3l3.4-10.7c0.7-2.5-2.2-4.9-4.9-4.9h-64.3c-2.7,0-4.3,2-5.2,4.9
				l-7.1,22.4c-4.6-7.6-12.4-12.1-21.6-12.1c-10.1,0-17.4,4.2-22,11.4H131L130.5,17h-8.4L122,36.2v54.4h10V67.9h0.2
				c3.7,5.8,10.9,9.2,19.1,9.2c2.9,0,5.7-0.4,8.4-1.2l-2.5,7.9c-0.8,2.8,2.2,4.9,4.9,4.9h63.7c2.7,0,5.1-2.2,5.8-4.9l3.6-11.5
				c4.1,2.3,10,3.8,16.3,3.8c14,0,22-7.2,22-17.3C273.6,50.2,268.4,45.2,258.2,41.4z M149.4,68.7c-8.1,0-14.9-5.1-16.9-12.5
				c-0.3-1.3-0.5-2.8-0.5-4.4V41.8c0-1.5,0.4-3,0.8-4.4c2.2-8,9.4-13.2,17-13.2c11.9,0,18.4,10.1,18.4,21.8c0,1.2-0.1,2.4-0.2,3.5
				l-3.5,11.1C161.4,65.7,156.2,68.7,149.4,68.7z M192.2,77.7l16.4-32.6l-18.1-7.4l28.4-26.1L209.5,31l19,7.2L192.2,77.7z
				 M251.9,68.3c-5.3,0-10.8-2.1-14-4.1l6-19.2c2.3,1.6,5.1,3,8.5,4.2c7.9,2.9,10.9,5.6,10.9,10.6C263.3,64.5,259.7,68.3,251.9,68.3
				z"/>
			<path id="Shape_3_" class="st0" d="M295.6,1.8l-10.4,0v14.1H276V24h9.1v32c0,6.9,1.1,12.1,4.1,15.3c2.5,2.9,6.5,4.5,11.5,4.5
				c4.1,0,7.4-0.6,9.5-1.5l-0.5-8c-1.3,0.4-3.4,0.7-6.2,0.7c-5.9,0-8-4.1-8-11.4V24h15.3v-8.1h-15.3L295.6,1.8L295.6,1.8z"/>
			<path id="Shape_4_" class="st0" d="M342.4,15.7c-16.3,0-29.1,11.5-29.1,31.2c0,18.6,12.2,30.2,28.1,30.2
				c14.2,0,29.2-9.5,29.2-31.2C370.7,28,359.3,15.7,342.4,15.7z M342,69.1c-10.4,0-17.8-9.7-17.8-22.6c0-11.2,5.5-22.8,18.1-22.8
				c12.6,0,17.6,12.6,17.6,22.6C359.8,59.5,352.1,69.1,342,69.1z"/>
			<path id="Shape_5_" class="st0" d="M388.4,28.6h-0.5l-0.4-11.5h-9.3c0.4,5.5,0.5,11.4,0.5,18.3v38.1h10.6v-29
				c0-1.8,0.2-3.5,0.5-5c1.5-8,6.8-13.7,14.3-13.7c1.5,0,2.5,0.1,3.6,0.4V16.1c-1-0.2-1.8-0.4-3-0.4
				C397.5,15.7,391.1,20.7,388.4,28.6z"/>
			<path id="Shape_6_" class="st0" d="M479.6,15.7c-5.6,0-9.5,1.5-13,4.1c-2.4,1.8-4.7,4.4-6.6,7.6h-0.3
				c-2.5-6.9-8.6-11.8-16.6-11.8c-9.7,0-15.2,5.2-18.4,10.8h-0.4l-0.5-9.5h-9.3c0.4,4.9,0.5,9.8,0.5,15.9v40.5h10.4V40.3
				c0-1.8,0.2-3.6,0.9-5.2c1.7-5.3,6.5-10.7,13.2-10.7c8.1,0,12.2,6.8,12.2,16.1v32.9h10.4v-34c0-1.9,0.4-3.9,0.8-5.3
				c1.8-5.2,6.6-9.7,12.6-9.7c8.6,0,12.7,6.8,12.7,18.1v30.9h10.4V41.2C498.9,20.8,487.4,15.7,479.6,15.7z"/>
		</g>
	</g>
</g>
</svg>
