<?xml version="1.0" encoding="utf-8"?>
<!-- Generator: Adobe Illustrator 21.0.0, SVG Export Plug-In . SVG Version: 6.00 Build 0)  -->
<svg version="1.1" id="Layer_1" xmlns="http://www.w3.org/2000/svg" xmlns:xlink="http://www.w3.org/1999/xlink" x="0px" y="0px"
	 viewBox="0 0 600 250" style="enable-background:new 0 0 600 250;" xml:space="preserve">
<style type="text/css">
	.st0{opacity:0.8;}
	.st1{fill:#45545E;}
</style>
<title>Artboard</title>
<desc>Created with Sketch.</desc>
<g id="Page-1" class="st0">
	<g id="Artboard">
		<g id="pixeden-logo-envato" transform="translate(50.000000, 59.000000)">
			<path id="Shape" class="st1" d="M182.3,32h-32.1v11h6.4v59.2h13V77.9h12.7c13.1,0,22.3-9.5,22.3-23.1S195.4,32,182.3,32z
				 M179.9,66.9h-10.4V42.9h10.6c7.1,0,11.3,4.7,11.3,11.9C191.4,62.1,187.2,66.9,179.9,66.9z"/>
			<rect id="Rectangle-path" x="212.4" y="32" class="st1" width="10.9" height="11.6"/>
			<path id="Shape_1_" class="st1" d="M224.3,89.4V58.5c0-4.6-2-6.7-6.6-6.7h-12v10.7h4c1.4,0,2.2,0.7,2.2,2.2v30.8
				c0,4.7,2,6.7,6.6,6.7h12V91.6h-3.9C225.1,91.6,224.3,90.8,224.3,89.4z"/>
			<path id="Shape_2_" class="st1" d="M270.8,64.1c1-1.5,1.8-1.7,3.9-1.7h3.6V51.7h-8.7c-4.2,0-5.9,0.9-8.2,4.7l-5,8.3
				c-0.7,1.3-1.6,3.3-1.6,3.3h-0.2c0,0-0.9-2-1.6-3.3l-4.9-8.3c-2.3-3.9-4.1-4.7-8.2-4.7h-8.8v10.7h3.7c2.1,0,2.9,0.2,3.8,1.7
				l8.3,12.6l-16.4,25.5h13.9l8.7-14.1c0.7-1.1,1.5-2.7,1.5-2.7h0.2c0,0,0.7,1.7,1.4,2.7l8.8,14.1H279l-16.5-25.5L270.8,64.1z"/>
			<path id="Shape_3_" class="st1" d="M305.4,50.6c-15.1,0-25.6,10.9-25.6,26.4c0,14.3,10.4,26.4,27.1,26.4
				c12.6,0,20.3-7.6,20.3-7.6l-5.2-8.7c0,0-6,5.6-14.1,5.6c-7.6,0-14.1-4.6-15.1-13.5h34.8c0,0,0.3-3.2,0.3-4.6
				C327.8,61.1,319.9,50.6,305.4,50.6z M293.1,70.4c1.4-6.3,5.9-10.2,12.4-10.2c5.1,0,9.3,4.1,9.5,10.2H293.1z"/>
			<path id="Shape_4_" class="st1" d="M381.7,89.4V38.7c0-4.6-2.1-6.7-6.7-6.7h-12v10.7h4c1.4,0,2.2,0.7,2.2,2.2v8.9
				c0,1.7,0.1,3,0.1,3H369c0,0-3.6-6.1-14.5-6.1c-13.3,0-22.9,10.4-22.9,26.4c0,15.6,8.8,26.4,22.4,26.4c11.6,0,15.7-8.2,15.7-8.2
				h0.2V97c0,3,1.7,5.1,6.2,5.1h11.6V91.6h-3.9C382.4,91.6,381.7,90.8,381.7,89.4z M356.7,92.8c-7.4,0-12.5-6.2-12.5-15.8
				c0-10,5.7-15.6,12.7-15.6c8.4,0,12.5,7.7,12.5,15.5C369.4,88,363.3,92.8,356.7,92.8z"/>
			<path id="Shape_5_" class="st1" d="M415.3,50.6c-15.1,0-25.6,10.9-25.6,26.4c0,14.3,10.4,26.4,27.1,26.4
				c12.6,0,20.3-7.6,20.3-7.6l-5.2-8.7c0,0-6,5.6-14.1,5.6c-7.6,0-14.1-4.6-15.1-13.5h34.8c0,0,0.3-3.2,0.3-4.6
				C437.6,61.1,429.7,50.6,415.3,50.6z M402.9,70.4c1.4-6.3,5.9-10.2,12.4-10.2c5.1,0,9.3,4.1,9.5,10.2H402.9z"/>
			<path id="Shape_6_" class="st1" d="M496,91.6c-1.4,0-2.2-0.8-2.2-2.2V69.7c0-13.3-6.4-19.2-17.6-19.2c-10.2,0-15.6,6.2-17.8,10.5
				h-0.2c0,0,0.2-1.1,0.2-2.2v-1.5c0-3.6-2.2-5.6-6.6-5.6h-11.6v10.7h4c1.4,0,2.2,0.7,2.2,2.2v37.6h12.5V79c0-2.4,0.3-4.6,1-6.7
				c1.8-6,6.8-10.3,13.5-10.3c6.3,0,7.9,4.2,7.9,10.3v23.1c0,4.7,2,6.7,6.7,6.7h12V91.6H496L496,91.6z"/>
			<path id="Shape_7_" class="st1" d="M22.9,17.7c0.3-0.1,0.6-0.2,0.9-0.4c0.6-0.3,1.3-0.5,1.9-0.7c0.5-0.2,0.9-0.3,1.4-0.4
				c0.6-0.2,1.2-0.3,1.8-0.4c0.8-0.1,1.5-0.2,2.3-0.4c0.6-0.1,1.2-0.2,1.8-0.1c0.3,0,0.6,0,0.8,0c1.4-0.1,2.8-0.1,4.2,0
				c1.1,0.1,2.2,0.2,3.3,0.5c0.9,0.2,1.7,0.4,2.6,0.6c1,0.3,1.9,0.6,2.8,1c0.8,0.3,1.5,0.6,2.2,0.9c0.9,0.4,1.7,1,2.6,1.4
				c0.5,0.3,1,0.6,1.5,0.9c1,0.6,2.1,1.2,3.1,1.8c0.8,0.4,1.5,0.9,2.2,1.3c0.8,0.5,1.7,1,2.5,1.5c0.9,0.5,1.8,1.1,2.8,1.6
				c0.9,0.5,1.8,1,2.7,1.5c1,0.6,2.1,1.2,3.1,1.8c1.4,0.8,2.7,1.6,4.1,2.4c0.9,0.5,1.8,1.1,2.7,1.6c1,0.6,2,1.1,3,1.7
				c1.1,0.7,2.3,1.3,3.4,2c1.3,0.8,2.7,1.5,4,2.3c0.6,0.3,1.2,0.7,1.9,1.1c0.7,0.4,1.4,0.8,2.1,1.2c0.7,0.4,1.5,0.8,2.2,1.2
				c0.6,0.3,1.2,0.7,1.7,1c1.1,0.6,2.3,1.3,3.4,2c0.2,0.1,0.3,0.3,0.3,0.5c0,0.9,0.1,1.8,0.1,2.7c0,2.6,0,5.2,0.1,7.8
				c0.1,2.2,0,4.3,0.1,6.4c0.1,2.3,0,4.6,0,6.8l0,0v5.4c0,0.6,0,1.3,0,1.9c0,0.4,0.2,0.5,0.5,0.3c0.3-0.1,0.5-0.3,0.8-0.5
				c0.8-0.4,1.6-0.9,2.4-1.3c1.1-0.6,2.1-1.2,3.1-1.8c1-0.5,1.9-1.1,2.8-1.6c1.3-0.7,2.5-1.4,3.8-2.1c1-0.6,2-1.2,2.9-1.8
				c0.9-0.6,1.7-1.3,2.5-2c0.9-0.8,1.8-1.7,2.7-2.6c0.7-0.8,1.3-1.6,1.9-2.4c0.4-0.6,0.8-1.3,1.2-2c0.3-0.6,0.7-1.2,1-1.9
				c0.4-0.8,0.7-1.6,1-2.5c0.1-0.4,0.2-0.8,0.3-1.1c0.2-0.5,0.3-0.9,0.4-1.4c0.1-0.7,0.3-1.4,0.4-2c0.1-0.8,0.2-1.6,0.2-2.5
				c0-0.2,0-0.3,0-0.5c0.1-0.7,0.1-1.3,0-2c-0.1-0.7-0.1-1.4-0.1-2c0-0.3-0.1-0.6-0.1-0.9c-0.1-0.6-0.1-1.3-0.3-1.9v0
				c0-0.6-0.3-1.1-0.4-1.7c-0.1-0.4-0.3-0.8-0.3-1.2c-0.2-0.7-0.4-1.3-0.7-1.9c-0.2-0.6-0.4-1.1-0.7-1.7c-0.4-0.8-0.9-1.6-1.3-2.4
				c-0.6-1.1-1.3-2.1-1.9-3.2c-0.7-1.1-1.4-2.2-2.2-3.2c-1.1-1.4-2.1-2.8-3.3-4.1c-0.7-0.8-1.4-1.5-2.1-2.3c-1.3-1.4-2.8-2.8-4.3-4
				c-1.1-1-2.2-1.9-3.4-2.8c-1-0.7-2-1.4-3-2.1c-0.6-0.4-1.1-0.8-1.7-1.1c-0.9-0.5-1.8-1-2.6-1.5c-0.9-0.6-1.9-1.1-2.9-1.5
				C94,6.8,93.1,6.4,92.2,6c-0.8-0.3-1.5-0.6-2.3-1c-0.3-0.1-0.5-0.2-0.8-0.3c-0.4-0.1-0.8-0.2-1.1-0.4c-0.6-0.2-1.3-0.5-1.9-0.7
				c-0.7-0.2-1.4-0.4-2.2-0.6c-1.1-0.4-2.2-0.6-3.4-0.9c-1.5-0.3-3-0.6-4.5-0.9C74.9,1,73.8,1,72.7,0.8c-1-0.1-2-0.2-3-0.2
				c-0.9,0-1.8-0.1-2.7-0.1c-0.2,0-0.4,0-0.6-0.1c-0.3-0.1-0.6-0.1-0.9,0c-0.1,0-0.2,0.1-0.3,0.1c-0.6,0-1.2,0.1-1.8,0.1
				c-0.7,0-1.4,0.1-2.1,0.1c-1.2,0-2.3,0.3-3.4,0.3c-0.2,0-0.5,0-0.7,0.1c-1.3,0.3-2.6,0.4-3.8,0.7c-1,0.2-2,0.4-3,0.7
				c-1.2,0.3-2.3,0.6-3.5,1c-0.7,0.2-1.3,0.4-2,0.6c-0.7,0.2-1.3,0.5-2,0.7c-0.6,0.2-1.2,0.5-1.8,0.7c-0.5,0.2-1,0.4-1.5,0.6
				c-0.7,0.3-1.4,0.6-2.1,1c-0.6,0.3-1.2,0.6-1.8,1c-0.8,0.4-1.5,0.9-2.3,1.3c-0.5,0.3-1,0.6-1.4,0.9c-0.8,0.4-1.6,0.9-2.3,1.4
				c-1,0.8-2.1,1.4-3.1,2.2c-0.8,0.6-1.6,1.2-2.4,1.9c-0.6,0.5-1.1,1-1.7,1.5c-0.1,0-0.1,0.1-0.2,0.2c-0.1,0.2-0.1,0.3,0.1,0.3
				C22.6,17.8,22.7,17.7,22.9,17.7z"/>
			<path id="Shape_8_" class="st1" d="M131.6,62.1c0-0.6-0.2-1.3-0.2-1.9c0-0.4,0-0.8-0.1-1.2c-0.1-0.5-0.1-1-0.2-1.5
				c0-0.4-0.1-0.7-0.2-1.1c-0.1-0.6-0.2-1.2-0.3-1.8c-0.1-0.6-0.3-1.2-0.3-1.8c0,0,0-0.1,0-0.1c-0.1-0.2-0.3-0.3-0.5-0.1
				c-0.1,0.1-0.1,0.3-0.1,0.4c-0.2,0.8-0.2,1.7-0.4,2.5c0,0,0,0,0,0c0,0.6-0.3,1.1-0.4,1.7c-0.1,0.3-0.1,0.6-0.2,0.9
				c-0.3,0.7-0.5,1.4-0.7,2.1c-0.3,0.7-0.6,1.5-0.9,2.2c-0.4,0.8-0.8,1.7-1.3,2.4c-0.3,0.5-0.5,1-0.9,1.4c-0.6,0.8-1.1,1.6-1.8,2.4
				c-1.1,1.3-2.2,2.6-3.5,3.7c-0.9,0.8-1.9,1.6-2.9,2.4c-0.7,0.5-1.4,0.9-2.1,1.4c-1.3,0.8-2.6,1.5-3.9,2.2c-1,0.6-2,1.1-3,1.7
				c-0.9,0.5-1.8,1.1-2.7,1.6c-2,1.2-4.1,2.3-6.1,3.5c-1.5,0.9-3.1,1.8-4.6,2.7c-0.7,0.4-1.3,0.8-2,1.2c-0.4,0.2-0.9,0.5-1.3,0.8
				c-0.6,0.3-1.1,0.6-1.7,0.9c-0.9,0.5-1.8,1-2.7,1.6c-1.2,0.7-2.4,1.4-3.7,2.1c-2.1,1.2-4.2,2.4-6.3,3.6c-1.1,0.7-2.2,1.3-3.4,2
				c-1,0.6-2.1,1.2-3.1,1.8c-1,0.6-2.1,1.2-3.2,1.8c-0.2,0.1-0.3,0.1-0.5,0c-0.6-0.4-1.2-0.7-1.8-1.1c-0.5-0.3-1-0.5-1.5-0.8
				c-0.5-0.3-1.1-0.6-1.6-0.9c-0.9-0.6-1.9-1.1-2.8-1.6c-0.9-0.5-1.9-1.1-2.8-1.6c-0.9-0.5-1.9-1.1-2.8-1.6
				c-0.8-0.4-1.5-0.8-2.2-1.3c-1-0.6-1.9-1.2-2.9-1.7c-0.9-0.5-1.7-1-2.6-1.5c-0.8-0.5-1.7-1-2.5-1.6c-1-0.6-2.1-1.2-3.1-1.9
				c-0.1,0-0.2-0.1-0.3-0.1c-0.3-0.1-0.5,0-0.4,0.4c0.1,0.7,0,1.4,0,2c0,2.6,0,5.1,0,7.7l0,0c0,2.6,0,5.2,0,7.8c0,0.2,0,0.4,0,0.6
				c0,0.6,0.2,1.2,0.2,1.9c0,0.1,0,0.2,0,0.3c0.1,0.4,0.2,0.9,0.3,1.3c0,0.1,0,0.2,0.1,0.3c0.2,0.5,0.2,1,0.4,1.5
				c0.1,0.5,0.3,1,0.5,1.5c0.2,0.6,0.4,1.2,0.6,1.8c0.4,1,0.8,1.8,1.3,2.7c0.5,0.9,1.1,1.7,1.6,2.6c0.6,0.9,1.2,1.7,1.9,2.5
				c0.6,0.7,1.3,1.5,2.1,2.1c0.5,0.5,1.1,0.9,1.7,1.4c0.6,0.5,1.3,0.9,1.9,1.3c0.7,0.5,1.5,0.9,2.3,1.3c0.9,0.4,1.9,0.9,2.9,1.2
				c0.6,0.2,1.2,0.5,1.9,0.6c0.9,0.2,1.7,0.4,2.6,0.6c1.2,0.2,2.4,0.4,3.7,0.4c2.3,0,4.5,0,6.8-0.2c0.5,0,0.9,0,1.4-0.1
				c1-0.2,2-0.2,2.9-0.4c1.5-0.2,3.1-0.5,4.6-0.8c0.5-0.1,1-0.2,1.5-0.3c0.5-0.1,1-0.2,1.5-0.4c0.5-0.1,0.9-0.3,1.4-0.4
				c0.5-0.2,1-0.4,1.6-0.5c0.4-0.1,0.8-0.3,1.2-0.4c0.4-0.1,0.7-0.2,1-0.4c0.3-0.1,0.7-0.3,1-0.4c0.7-0.3,1.4-0.5,2.1-0.8
				c0.2-0.1,0.5-0.2,0.7-0.3c0.5-0.2,1.1-0.5,1.6-0.7c0.5-0.2,0.9-0.5,1.4-0.7c0.8-0.4,1.6-0.7,2.3-1.2c0.6-0.3,1.2-0.7,1.8-1
				c0.8-0.5,1.6-1,2.4-1.5c1.4-0.9,2.8-1.9,4.2-3c0.9-0.7,1.8-1.4,2.6-2.2c1.1-0.9,2.1-1.9,3.1-2.8c1.2-1.2,2.3-2.4,3.5-3.7
				c0.6-0.7,1.3-1.5,1.9-2.2c0.5-0.6,0.9-1.3,1.4-1.9c0.8-1,1.4-2,2.1-3c0.9-1.3,1.7-2.7,2.5-4.1c0.6-1.1,1.2-2.3,1.8-3.5
				c0.4-0.8,0.7-1.5,1.1-2.4c0.3-0.6,0.6-1.2,0.8-1.9c0.3-0.8,0.6-1.5,0.9-2.3c0.3-0.7,0.4-1.4,0.7-2c0.2-0.4,0.3-0.9,0.4-1.4
				c0.2-0.8,0.5-1.6,0.7-2.4c0.2-1,0.5-1.9,0.6-2.9c0.1-0.5,0.1-1,0.3-1.4c0.2-0.7,0.2-1.4,0.4-2.2c0.1-0.7,0.1-1.4,0.3-2.1
				c0.1-0.5,0-1,0.1-1.5c0.2-1.3,0.2-2.7,0.3-4c0.1-2,0-4.1-0.1-6.1C131.7,62.3,131.6,62.2,131.6,62.1z"/>
			<path id="Shape_9_" class="st1" d="M45.8,126.9c-0.9-0.7-1.8-1.5-2.6-2.3c-0.6-0.6-1.2-1.2-1.8-1.9c-0.8-1-1.6-1.9-2.3-3
				c-0.4-0.7-0.9-1.3-1.2-2c-0.4-0.6-0.7-1.3-1-2c-0.4-0.8-0.7-1.5-1-2.3c-0.2-0.6-0.5-1.2-0.7-1.9c-0.1-0.3-0.3-0.6-0.3-1
				c-0.1-0.6-0.3-1.1-0.4-1.7c0-0.2-0.2-0.4-0.2-0.7c-0.1-0.7-0.2-1.4-0.3-2.1c-0.1-1-0.3-2-0.3-3V49.2c0-0.6,0.1-1.1,0.1-1.7
				c0-0.2,0.1-0.3,0.2-0.4c0.2-0.1,0.4-0.2,0.6-0.4c1.3-0.7,2.5-1.5,3.8-2.2c1.1-0.6,2.2-1.3,3.3-1.9c1.1-0.7,2.3-1.3,3.4-2
				c1.1-0.7,2.2-1.3,3.3-1.9c1-0.6,1.9-1.1,2.9-1.7c0.7-0.4,1.4-0.8,2.2-1.3c1-0.6,2-1.1,2.9-1.6c0.9-0.5,1.8-1,2.7-1.5
				c0.4-0.2,0.7-0.4,1.1-0.6c0.3-0.2,0.3-0.4,0-0.6c-0.2-0.1-0.4-0.2-0.6-0.3c-1-0.6-2-1.2-3-1.7c-0.8-0.5-1.6-1-2.5-1.4
				c-1.3-0.7-2.6-1.5-3.9-2.2c-1.6-0.9-3.1-1.8-4.7-2.7c-0.9-0.4-1.7-0.8-2.6-1.1c-0.6-0.2-1.3-0.5-1.9-0.6c-0.1,0-0.1,0-0.2-0.1
				c-0.2-0.1-0.4-0.2-0.7-0.2c-0.1,0-0.1,0-0.2,0c-0.3-0.2-0.6-0.1-0.8-0.2c-0.6-0.2-1.3-0.3-1.9-0.4c-0.4-0.1-0.9-0.2-1.3-0.2
				c-0.4,0-0.8-0.1-1.2-0.2C33.9,20,33.2,20,32.4,20c-0.6,0-1.2,0-1.7,0.1c0,0-0.1,0-0.1,0l0,0c-0.1,0-0.2,0-0.3,0
				c-0.6,0.1-1.2,0.1-1.8,0.1c-0.7,0-1.4,0.3-2.2,0.3c0,0-0.1,0-0.1,0c-0.5,0.3-1.1,0.3-1.7,0.4c-0.4,0.1-0.9,0.3-1.4,0.4
				c-0.6,0.2-1.2,0.4-1.8,0.7c-0.7,0.3-1.5,0.7-2.2,1.1c-1.1,0.7-2.2,1.4-3.2,2.2c-1,0.9-2,1.8-2.9,2.8c-0.3,0.3-0.5,0.7-0.8,1
				c-0.4,0.5-0.8,1-1.2,1.6C10.4,32,9.6,33.3,9,34.5c-0.7,1.3-1.3,2.6-2,3.9c-0.5,1-0.9,2.1-1.4,3.1c-0.1,0.2-0.2,0.5-0.3,0.7
				c-0.2,0.6-0.4,1.3-0.7,1.9C4.4,44.8,4.2,45.4,4,46c-0.2,0.5-0.4,1-0.5,1.5c-0.1,0.4-0.3,0.9-0.4,1.3c-0.1,0.5-0.2,1.1-0.4,1.6
				c-0.2,0.5-0.2,1.1-0.4,1.6c0,0.1,0,0.2,0,0.2c0,0.2-0.1,0.3-0.1,0.4c-0.2,0.8-0.3,1.6-0.5,2.3v0c-0.1,0.8-0.3,1.6-0.3,2.4
				c0,0,0,0.1,0,0.1c-0.1,0.4-0.2,0.8-0.2,1.2c0,0.4,0,0.8-0.1,1.2C1,61.1,1,62.2,1,63.3c0,1.9,0,3.8,0,5.7c0,0.6,0,1.1,0.1,1.7
				c0.2,1.1,0.2,2.3,0.4,3.4c0.1,0.9,0.3,1.8,0.4,2.8c0,0.4,0.1,0.8,0.2,1.2c0.1,0.6,0.2,1.2,0.4,1.8c0.1,0.5,0.3,1.1,0.4,1.6
				c0.2,0.8,0.4,1.6,0.7,2.4c0.1,0.3,0.2,0.6,0.3,1c0.2,0.7,0.5,1.5,0.7,2.2c0.2,0.6,0.4,1.2,0.6,1.7c0.3,0.8,0.6,1.6,1,2.4
				c0.3,0.7,0.6,1.5,1,2.2c0.5,1,1,2,1.5,3c0.6,1.2,1.3,2.4,2.1,3.6c0.9,1.4,1.8,2.8,2.7,4.1c1,1.4,2.1,2.8,3.2,4.1
				c0.8,0.9,1.6,1.8,2.5,2.7c1.1,1.2,2.2,2.3,3.4,3.3c0.8,0.7,1.6,1.4,2.4,2c0.9,0.8,1.9,1.5,2.9,2.3c1.1,0.8,2.2,1.5,3.3,2.2
				c0.5,0.3,1,0.6,1.5,0.9c0.6,0.3,1.2,0.7,1.8,1c0.7,0.4,1.4,0.8,2.2,1.2c1,0.5,2.1,1,3.2,1.5c0.9,0.4,1.8,0.8,2.7,1.1
				c0.3,0.1,0.5,0.2,0.8,0.3c0.3,0.1,0.7,0.3,1,0.4c0.4,0.1,0.8,0.2,1.1,0.4c0.4,0.1,0.8,0.1,1.1,0.4c0.1,0,0.1,0,0.2,0
				c0.1,0,0.2,0,0.2-0.1c0.1-0.1,0-0.2-0.1-0.2C46.3,127.3,46.1,127.1,45.8,126.9z"/>
		</g>
	</g>
</g>
</svg>
