<?xml version="1.0" encoding="utf-8"?>
<!-- Generator: Adobe Illustrator 21.0.0, SVG Export Plug-In . SVG Version: 6.00 Build 0)  -->
<svg version="1.1" id="Layer_1" xmlns="http://www.w3.org/2000/svg" xmlns:xlink="http://www.w3.org/1999/xlink" x="0px" y="0px"
	 viewBox="0 0 743 440" style="enable-background:new 0 0 743 440;" xml:space="preserve">
<style type="text/css">
	.st0{fill:#FFFFFF;}
</style>
<path class="st0" d="M68.1,352.6c-0.5-40.7-15.4-59.7-16-60.5c-0.5-0.7-1.4-1.1-2.3-1c-0.9,0-1.7,0.4-2.2,1.1
	c-0.6,0.8-14.1,19.8-14.5,60.4c0,0.3-0.2,8.2,5,13.4c2.6,2.6,6.1,4.1,10.3,4.4v7.9c0,1.5,1.2,2.7,2.6,2.7c1.5,0,2.6-1.2,2.6-2.7
	v-8.2C64.2,368.2,67.8,358.3,68.1,352.6z M53.5,364.5v-44.9c0-1.5-1.2-2.7-2.6-2.7c-1.5,0-2.6,1.2-2.6,2.7v8.9l-1.9-1.7c0,0,0,0,0,0
	c-1.2-1-3-0.9-4,0.3c-1,1.2-0.9,3,0.2,4.1l5.7,5v28.7c-2.6-0.3-4.6-1.1-6.2-2.7c-3.5-3.5-3.4-9.4-3.4-9.5
	c0.3-28.9,7.6-46.5,11.4-53.6v0c4.1,7,12.2,24.5,12.5,53.4C62.4,352.9,61.8,362.3,53.5,364.5z"/>
</svg>
