<?xml version="1.0" encoding="UTF-8"?>
<svg width="270px" height="375px" viewBox="0 0 270 375" version="1.1" xmlns="http://www.w3.org/2000/svg" xmlns:xlink="http://www.w3.org/1999/xlink">
    <!-- Generator: Sketch 43.2 (39069) - http://www.bohemiancoding.com/sketch -->
    <title>Artboard</title>
    <desc>Created with Sketch.</desc>
    <defs></defs>
    <g id="Page-1" stroke="none" stroke-width="1" fill="none" fill-rule="evenodd">
        <g id="Artboard" fill="#F2EDE5">
            <path d="M233.112504,88.0685041 C231.780489,88.2706075 230.154561,88.0501375 229.171558,88.7482807 C223.852764,92.5147311 221.023458,98.2008579 218.82793,103.997514 C212.636427,120.321464 202.402857,132.521039 185.657485,138.722418 C183.03936,139.686983 181.174713,139.19092 178.896406,137.849734 C173.844057,134.845933 168.57112,132.209465 165.594834,130.601856 C157.970218,128.67275 152.908697,126.844577 147.709133,126.192456 C137.25521,124.878832 126.709337,124.26335 116.217788,123.262028 C102.521134,121.957575 89.3028119,124.373573 76.1921967,128.057339 C67.437598,130.519312 61.3747322,136.765844 54.962877,142.544157 C54.2279771,143.205567 53.8145988,144.657 53.8972839,145.685766 C54.1820488,149.296065 52.6387589,151.932298 50.2227841,154.403443 C46.2451528,158.473025 42.3042077,162.588465 38.5930217,166.896742 C35.2124819,170.828516 35.2216534,175.329631 37.1783451,179.987133 C37.7754602,181.411005 38.4093084,183.073713 38.2255717,184.515998 C37.2059068,192.213987 35.3962656,199.700795 30.334517,205.929219 C28.7177371,207.922644 28.8371554,209.337274 31.1337119,210.788731 C34.5878522,212.975064 36.4066414,216.245333 36.2504898,220.388288 C36.0300199,226.386953 35.7728166,232.376446 35.3410482,238.365704 C34.9368415,243.923429 33.7150732,249.42589 35.4880282,255.001958 C35.8738448,256.20536 35.2951199,257.904872 34.7255666,259.19077 C33.228212,262.562139 31.1797107,265.712919 29.9302632,269.157895 C27.0365211,277.085643 24.4369742,285.114513 21.8371921,293.152085 C21.4605471,294.31873 21.7453285,295.705774 21.7269548,296.991908 C23.1232647,296.945977 24.6573831,297.267501 25.8882523,296.798997 C29.7372467,295.338392 33.467018,293.58378 37.2515764,291.939486 C43.1307761,289.394968 49.0833482,287.906825 55.6791047,288.439481 C64.7918641,289.17438 73.9688244,289.091695 83.1185053,289.46834 C84.6526001,289.532645 86.3245504,289.854157 87.6657135,290.561495 C93.8847309,293.831741 100.43463,294.989238 107.278253,293.593046 C118.586541,291.287294 129.867314,291.250561 141.295302,292.711166 C149.994636,293.822711 158.785921,294.061547 167.403652,291.673111 C168.588687,291.342418 169.883969,290.864721 170.756677,290.047136 C172.823592,288.108834 174.872117,286.08785 176.525583,283.809778 C178.032116,281.733691 179.410154,279.400378 180.117304,276.975326 C181.274777,273.034381 182.670993,269.424317 185.968989,266.723413 C187.677625,265.327103 189.3587,263.76547 190.589569,261.955852 C192.105298,259.732785 193.501655,257.289178 194.291584,254.735489 C195.439862,251.051818 196.036977,247.202824 196.781072,243.399687 C197.286307,240.818248 198.177382,238.154265 197.938545,235.618919 C197.277136,228.462757 199.371612,222.234568 202.531611,215.9236 C206.794031,207.407932 206.187768,198.524932 202.072305,190.008088 C200.565772,186.893993 198.388633,184.110545 196.66156,181.097338 C195.357106,178.819148 193.712788,176.522615 193.198241,174.033127 C191.618194,166.371824 190.093318,158.756379 186.547455,151.673825 C185.858483,150.295882 185.426738,148.633103 185.426738,147.108274 C185.43591,145.096482 185.389982,142.698874 188.008177,141.936459 C196.40438,139.483657 202.366359,133.678065 208.015799,127.449641 C217.78068,116.683415 225.010449,104.098165 232.983584,92.0639141 C233.599066,91.1269108 233.084613,89.4274458 233.112174,88.0679397 L233.112504,88.0685041 Z M186.041279,161.356255 C187.557008,164.47035 188.870586,167.786689 189.605485,171.167228 C190.965039,177.459853 194.419139,182.640839 197.891394,187.775968 C203.596099,196.227435 202.861199,205.13795 199.306071,213.764382 C196.779896,219.891684 193.85864,225.642246 194.9517,232.51362 C195.741724,237.510939 193.950402,242.085662 192.517241,246.733993 C191.966078,248.516119 192.113058,250.518786 191.488381,252.264203 C190.450326,255.157945 189.357172,258.134231 187.694416,260.68792 C186.27974,262.846692 183.707613,264.242955 182.228642,266.374282 C180.418954,268.992407 179.197091,272.014551 177.736463,274.880779 C176.52389,277.269145 175.605253,279.850584 174.116993,282.046112 C168.412288,290.442312 159.685439,290.800708 150.793032,290.423969 C140.265502,289.983029 129.75655,289.284862 119.228785,289.027659 C115.682922,288.944983 112.072623,289.670702 108.554275,290.341284 C101.47172,291.673299 94.7564986,291.122112 88.3352367,287.557836 C86.8562417,286.740251 84.8810893,286.593273 83.1267362,286.519783 C73.9772905,286.133966 64.800095,286.1707 55.6779288,285.463361 C48.7790408,284.930565 42.4955874,286.427926 36.3132562,289.119516 C32.6571042,290.708734 28.9642613,292.23361 24.4078816,294.162693 C30.0114644,283.185054 30.2779097,271.169616 36.6899953,261.349706 C38.4078269,258.713238 38.1506001,255.92979 37.9944486,252.870725 C37.7096837,247.450808 38.4353886,241.985034 38.6191018,236.528431 C38.8304002,230.217463 39.1610935,223.888152 38.9406235,217.586355 C38.8028385,213.572038 36.0285383,210.687467 33.199237,208.427738 C35.3028804,203.632428 37.8014697,199.094391 39.2896128,194.244286 C40.9982493,188.668218 42.6518095,182.926827 39.4365928,177.047628 C38.0770396,174.558139 38.5914696,171.554339 40.584871,169.312717 C44.4983014,164.903318 48.4851043,160.548947 52.582201,156.314277 C55.2920417,153.512486 56.6976407,150.297269 57.0282869,146.448275 C57.110972,145.419415 57.6988919,144.261941 58.4062302,143.48116 C67.6843128,133.339541 79.8286227,129.297709 92.9641658,127.322533 C111.152998,124.594114 129.285861,126.339601 147.172738,129.297567 C157.2685,130.969471 167.318169,134.230686 175.816199,140.651713 C176.551099,141.2029 177.249266,141.799991 177.993337,142.387911 C176.220382,144.895743 174.263808,145.750108 171.112792,145.860402 C157.122178,146.328903 143.148967,145.447023 129.123548,147.908927 C117.245684,149.994208 104.908301,149.397093 92.7924461,150.214678 C86.1691749,150.664813 79.58259,151.583426 72.9776619,152.355083 C72.0039254,152.465306 71.057727,152.915441 70.2033852,153.889178 C71.3149302,153.879983 72.4264517,153.925911 73.5288957,153.870811 C89.7700671,153.016493 106.010298,152.189736 122.253351,151.252686 C126.671922,150.995459 131.062979,150.223826 135.490721,150.003356 C147.138827,149.424631 158.796339,149.002058 171.262124,148.496823 C168.046907,152.851193 164.776661,155.046722 160.523413,156.222562 C136.997208,162.744711 113.07592,166.474475 88.6772415,167.503335 C78.8754399,167.916713 69.101388,168.899645 59.3188701,169.652911 C58.1981536,169.735573 57.1049752,170.093851 56.0486241,170.608281 C90.8911129,170.938998 125.568984,169.891748 159.955247,159.465317 C159.183614,160.53091 158.880459,161.091292 158.439519,161.532231 C155.288738,164.655498 151.852934,167.540068 149.014456,170.929779 C145.06434,175.660654 139.892525,177.240747 134.178649,177.553051 C117.882213,178.444126 102.329848,182.936281 86.8134647,187.428225 C78.3253114,189.890198 70.112775,193.325767 61.798646,196.394004 C60.540121,196.853311 59.4194515,197.698457 57.4442756,198.809885 C71.5910409,194.510779 84.7190586,190.092208 98.0836552,186.573859 C111.422148,183.064683 124.897509,179.840294 139.146337,179.840294 C138.889111,180.253673 138.742131,180.602756 138.494122,180.859959 C131.815822,187.63021 125.24758,194.519927 118.33952,201.042076 C116.750302,202.548609 114.040415,203.099796 111.743764,203.577422 C96.246664,206.810982 80.6851281,209.787268 65.2157779,213.158636 C62.0833404,213.838413 59.235456,215.840962 56.2499985,217.23739 C56.4061735,217.467031 56.5531535,217.687525 56.7093051,217.917166 C66.0518236,215.703271 75.3574209,213.305757 84.7460324,211.32141 C94.0057718,209.364741 103.357462,207.821404 113.020279,206.792545 C112.579339,207.408026 112.193523,208.078631 111.679093,208.629794 C105.19363,215.583712 98.735682,222.565379 92.1399255,229.409002 C91.0651372,230.520547 89.4300848,231.237057 87.914192,231.751487 C77.5152988,235.279007 67.0797194,238.650375 56.6909384,242.20541 C55.2211385,242.710645 53.9902693,243.914046 52.9705809,245.301161 C63.9113011,241.700269 74.8614281,238.099142 86.6560432,234.213461 C85.7925299,235.435229 85.507765,235.931293 85.1311199,236.344671 C78.2689181,243.803964 71.2416283,251.125449 64.5630927,258.74983 C57.6183469,266.68675 49.6814274,273.401972 40.8252362,279.023898 C38.8410063,280.282423 36.278028,280.631482 33.9813775,281.393921 C34.2937041,282.073697 34.6152257,282.753474 34.9275523,283.442445 C37.2975753,282.413585 39.924872,281.74298 42.000935,280.291665 C49.4141354,275.083164 56.8826003,269.901943 63.855096,264.133037 C67.7593549,260.908649 70.6620333,256.480906 74.1253523,252.714456 C78.2683067,248.203934 82.5307264,243.803705 86.75646,239.366791 C87.4454316,238.641086 88.2629931,238.043971 89.3470705,237.685716 C83.9915899,249.627782 78.6358742,261.55997 73.1334137,273.823981 C76.8721143,271.270291 78.1215618,267.421062 79.7475133,263.866027 C84.3958437,253.696893 88.9705665,243.490838 93.5911471,233.303596 C93.8024221,232.835094 94.0688204,232.339031 94.4179037,231.971581 C101.987491,224.181641 109.575186,216.400873 117.457076,208.767085 C113.378323,228.389032 107.701367,247.431054 99.3049296,265.849411 C100.398084,264.453101 101.904712,263.222114 102.529318,261.64202 C106.479435,251.638209 110.521267,241.652741 113.957071,231.465264 C116.51076,223.877334 118.026653,215.931243 120.350818,208.260769 C121.140842,205.651815 122.629008,203.006175 124.484601,201.012891 C130.143213,194.913104 136.132707,189.125855 142.296695,183.375293 C137.694457,211.531955 134.745686,239.869698 128.113243,267.760621 C128.544988,266.842008 129.123736,265.969299 129.371768,265.004687 C131.916286,255.092827 134.773342,245.235996 136.812718,235.223014 C139.302207,223.032846 141.075138,210.694993 143.206466,198.430982 C144.253692,192.404802 145.236624,186.369451 146.587005,180.416644 C146.94526,178.845792 148.396694,177.412843 149.609384,176.172567 C154.432209,171.285542 159.355921,166.499403 164.252354,161.685749 C164.509581,161.437717 164.886202,161.309104 165.409827,160.996777 C159.879617,194.084913 158.869335,227.285929 155.681633,260.28235 C158.961051,252.225965 159.163295,243.673611 159.999082,235.232256 C162.231344,212.652366 164.353453,190.072947 166.796848,167.510931 C167.504186,160.997953 168.836201,154.438883 176.295518,150.635746 C177.094713,158.030604 178.114402,165.278716 178.60127,172.56328 C179.40966,184.670668 179.795476,196.806747 180.51201,208.913195 C180.668161,211.549664 181.476575,214.158617 182.707515,216.703135 C182.799371,216.216267 183.001475,215.729398 182.983108,215.251702 C182.431921,198.486811 182.000176,181.712043 181.210153,164.946918 C180.971316,159.81179 179.648496,154.731691 179.033015,149.596798 C178.886035,148.319906 179.584178,146.941986 180.429325,145.674196 C180.943755,151.498366 183.617027,156.357877 186.042079,161.355197 L186.041279,161.356255 Z" id="Page-1" transform="translate(127.464227, 192.562566) scale(-1, 1) rotate(132.000000) translate(-127.464227, -192.562566) "></path>
        </g>
    </g>
</svg>