<?xml version="1.0" encoding="utf-8"?>
<!-- Generator: Adobe Illustrator 21.0.0, SVG Export Plug-In . SVG Version: 6.00 Build 0)  -->
<svg version="1.1" id="Layer_1" xmlns="http://www.w3.org/2000/svg" xmlns:xlink="http://www.w3.org/1999/xlink" x="0px" y="0px"
	 viewBox="0 0 1440 402" style="enable-background:new 0 0 1440 402;" xml:space="preserve">
<style type="text/css">
	.st0{fill:#F2EDE5;}
</style>
<g>
	<path id="Page-1" class="st0" d="M767.8,373.4c1.7-5,4.3-9.6,6.6-14.3c2.9-5.7,5.9-11.4,8.8-17.1c0.3-0.7,0.3-1.7,0.1-2.4
		c-1.4-3.5-3.4-6.8-4.3-10.4c-2.7-10.2-4.7-20.5-5-31.2c-0.3-11.9,0-23.8,2.7-35.5c3.7-16.2,10.6-30.8,21.4-43.6
		c8.2-9.8,15.7-20.1,23.1-30.4c9.1-12.7,18.7-24.9,32.3-33.3c7.1-4.4,14.2-8.9,22.2-11.5c5.1-1.7,10.2-3.4,15-5.6
		c10.5-4.7,20.8-9.9,31.3-14.6c10.4-4.7,20.7-9.4,32.2-11.2c3.9-0.6,7.8-1.9,11.4-3.5c5-2.1,9.6-5.3,14.6-7.1
		c5.5-2,9.7-5.2,13.4-9.6c0.7-0.8,1.2-1.3,2.2-0.3c0.3,0.3,1,0.3,1.5,0.4c-1,4.2-1.9,8.3-2.9,12.4c-1.4,5.5-2.4,11.1-4.4,16.3
		c-2.5,6.9-5.5,13.6-6.6,21c-0.9,6.3-2.3,12.4-3.1,18.7c-1.4,11.6-3.2,23.2-8.4,33.9c-5.3,10.8-9.7,21.9-13.4,33.3
		c-2.6,7.8-5.9,15.2-10.6,21.6c-10.4,14.2-21.5,28-32.2,41.9c-8.4,10.9-19.2,19.1-30.8,26.3c-9.5,5.9-19.2,11.3-29.1,16.6
		c-6,3.2-12.3,6.1-19.3,7c-7.6,1-15,2.4-22.6,3.4c-5,0.7-10,1.6-15-0.3c-2.2-0.8-4.7-1.1-7.1-1.3c-3.5-0.4-5.1,0.5-6.7,3.7
		c-3.3,6.5-6.6,12.9-9.8,19.4c-3.2,6.5-6,13.1-5.6,20.7c0.3,4.5,1.3,8.6,4,12.3c0.4,0.5,0.7,1.7,0.4,2.1c-0.5,0.6-1.6,1.1-2.2,0.9
		c-0.9-0.2-1.9-1-2.4-1.8C764.4,391.6,764.7,382.4,767.8,373.4L767.8,373.4z M903.9,135.1c-10,5.3-20.8,8.5-31.2,12.8
		c-3.8,1.5-7.4,4.1-10.4,6.9c-5.8,5.5-11.4,11.2-16.5,17.3c-7.6,9.2-13.4,19.4-18.5,30.2c-1.7,3.7-3.7,7.2-5.4,10.9
		c-4.4,9.6-7.2,19.6-9.7,29.8c-1.4,5.7-2.9,11.4-3.9,17.2c-1.8,10.9-3.4,21.9-3.1,33c0.1,4.5,0.9,9,1.4,13.6c0.3,0,0.6,0,0.8,0
		c4.3-5.3,8.6-10.6,13-15.9c2.5-3.1,5.3-6,7.8-9.1c2.3-2.9,4.4-5.9,6.5-9c0.3-0.4,0.3-1.1,0.3-1.6c-0.3-2.5-1-5-1-7.5
		c-0.2-11.1,1.3-22.1,5-32.6c1.9-5.4,3.4-10.9,5.5-16.3c3.6-9.2,8.8-17.5,14.3-25.6c4.7-7.1,9.1-14.5,14.5-21
		c7.3-8.7,15.6-16.8,23.4-25c2.5-2.7,5.2-5.2,7.9-8C904.2,135.2,904,135.1,903.9,135.1L903.9,135.1z M951.2,115.7
		c-3.2,0.8-6.5,1.2-9.5,2.5c-9.6,3.9-19.2,7.8-28.5,12.2c-3.3,1.6-6.1,4.6-8.8,7.3c-10.8,10.7-22.1,21-31.2,33.3
		c-7.7,10.4-14.1,21.5-20.5,32.7c-6.8,11.9-10.3,24.9-13.7,37.9c-2.1,8-2.4,16.3-2.1,24.7c0,0.5,0.1,1,0.2,1.6
		c0,0.2,0.2,0.4,0.5,0.9c1-1.1,2-2.1,2.9-3.1c12.1-14.2,24.1-28.5,36.3-42.7c3.6-4.2,5.5-9,7.3-14c2.3-6.5,4.7-13,7.2-19.5
		c3.1-8.2,7.7-15.5,12.4-22.7c7.1-11,15.3-21.1,24.8-30.1c5.5-5.2,11-10.5,16.6-15.7c1.9-1.7,4.2-3.1,6.4-4.6
		C951.3,116,951.3,115.9,951.2,115.7L951.2,115.7z M971.9,109.4c-4.6,1.9-9.2,3.7-13.8,5.6c-1,0.4-2,0.7-2.8,1.4
		c-10.4,7.7-19.5,16.8-28.4,26.1c-9.5,9.8-17.5,20.7-24.5,32.4c-4.4,7.3-7.5,15.3-9.9,23.5c-1.1,3.9-2.9,7.6-4.4,11.3
		c0.1,0.1,0.3,0.2,0.4,0.2c3.3-4,6.6-8,9.8-12.1c7.1-8.9,14.2-17.8,21.2-26.8c5.6-7.2,12.4-13.3,19-19.7
		c11.2-10.9,22.2-22.2,33.2-33.3c4.2-4.2,8.3-8.5,12.5-12.7c0.5-0.5,0.8-1,1.6-2C980.8,105.5,976.4,107.5,971.9,109.4L971.9,109.4z
		 M981.3,137.5c-0.1-5.4,2.9-9.8,4.4-14.7c1.9-6.4,3.7-12.7,5.6-19.1c0.6-2,1.2-4,1.8-6.3c-2.4,3.1-4.4,6.1-6.8,8.7
		c-4.6,5.1-9.5,10.1-14.2,15.1c-10.6,11.1-20.9,22.5-32,33.1c-9.8,9.4-18.6,19.7-26.7,30.6c-5.7,7.7-12.1,14.8-18.2,22.2
		c-1.9,2.3-3.7,4.5-5.9,7.2c2.2-0.5,3.9-0.9,5.5-1.3c11.4-3.2,21.4-9,31.2-15.4c11.8-7.8,21.8-17.5,31.2-27.9
		c4.4-4.8,8.8-9.5,12.8-14.6c3.9-5.1,7.2-10.6,10.8-15.9C981,138.7,981.3,138.1,981.3,137.5L981.3,137.5z M980.2,143.6
		c-1.4,2.1-2.6,3.6-3.6,5.3c-4.2,7.5-10.2,13.6-15.9,19.9c-5.2,5.7-10.6,11.3-16.1,16.8c-6.6,6.6-14.1,12.2-21.9,17.3
		c-6.3,4-12.4,8.3-19.6,10.5c-5.8,1.8-11.7,3.3-17.5,5.1c-0.6,0.2-1.3,0.8-1.7,1.3c-4.5,5.4-9,11-13.5,16.4c-6.7,8-13.5,16-20.3,24
		c-2.8,3.3-5.6,6.7-8.3,10.1c-0.2,0.3-0.3,0.6-0.7,1.2c2.3-0.8,4.3-1.6,6.2-2.2c5.5-1.7,11.1-3.2,16.7-4.9c1.4-0.4,2.7-0.9,4-1.6
		c4.4-2.3,8.8-4.6,13.2-6.9c14.7-7.8,27.9-17.7,41.1-27.7c12.2-9.2,23.3-19.5,33.7-30.5c5.7-6,11-12.3,16.5-18.6
		c2.9-3.4,4.6-7.2,5-11.8C978,159.5,979.2,151.8,980.2,143.6L980.2,143.6z M954.3,229.7c3.9-11.1,8.5-21.9,14-32.4
		c2.9-5.6,5.5-11.2,6.7-18.1c-2.3,2.7-4.2,5-6.3,7.2c-7.7,8.3-15.4,16.5-23.2,24.7c-10.8,11.4-23.2,21.1-35.6,30.7
		c-9.9,7.7-20.5,14.5-31.9,19.8c-1.2,0.5-2.3,1.2-3.3,1.9c-5.8,3.9-12.3,6-19,7.6c-2.7,0.6-5.4,1.4-8,2.3c-3.1,1.1-6.1,2.4-9.6,2.4
		c-1,0-2.1,1-2.8,1.9c-6,7.4-11.9,14.8-17.8,22.2c-2.3,2.9-4.5,5.8-6.7,8.7c0.1,0.2,0.1,0.5,0.2,0.7c3.6-0.2,7.3-0.4,10.9-0.6
		c0.9-0.1,1.8-0.5,2.7-0.5c6.9-0.1,13.2-2.4,19.4-4.8c10.5-4.1,21-8.4,31.1-13.6c12.3-6.3,24.4-13,35.4-21.3
		c8-6,15.9-12.1,23.8-18.3c4.9-3.9,9.7-7.9,14.5-11.9C951.5,236,953.1,233.1,954.3,229.7L954.3,229.7z M790.6,338.8
		c4.6,1.1,9.2,2.3,13.8,3.2c1.6,0.3,3.5,0,5.2-0.2c9.9-1.4,19.9-2.5,29.6-4.6c5.5-1.2,10.8-3.7,15.9-6.3c8-4.1,15.9-8.6,23.6-13.3
		c10.9-6.7,21.5-13.9,30-23.7c5.3-6.1,10.1-12.5,15.2-18.9c6-7.6,12-15.1,17.8-22.8c2.8-3.7,5.1-7.7,7.6-11.6
		c-0.1-0.1-0.3-0.2-0.4-0.3c-1.7,1.5-3.3,3-5,4.4c-9.2,7.6-18.4,15.3-27.8,22.6c-6,4.7-12.4,9-18.8,13.2c-5,3.2-10.2,6.2-15.4,8.9
		c-6.1,3.2-12.4,6-18.6,9.2c-9.3,4.9-19.1,8.2-29.2,10.7c-7.4,1.8-15.2,3.2-23,2.1c-0.7-0.1-1.6,0.2-2,0.7c-1.1,1.1-1.8,2.5-2.8,3.6
		c-6.3,6.8-10.2,15.3-15.5,22.8C790.6,338.6,790.6,338.8,790.6,338.8L790.6,338.8z M785.4,334.8c0.2,0.5,0.6,1,1.1,1.8
		c3.3-5.1,6.3-9.9,9.5-14.6c2.2-3.2,4.5-6.2,6.9-9.2c1-1.2,1.1-2.3,0.7-3.9c-2-6.2-2.5-12.7-2.2-19.2c0.8-22.4,5.8-43.9,13-65.1
		c3.1-9.2,7.7-17.7,11.9-26.3c7.5-15.1,16.8-29.1,29.6-40.4c0.4-0.3,0.7-0.7,1.1-1.1c-10.9,6.5-19.6,15.3-26.7,25.6
		c-9.8,14.2-20,28.1-31.1,41.3c-8.8,10.5-14.5,22.7-17.7,36c-5,20.3-5,40.7-0.2,61.1C782.2,325.5,783.9,330.1,785.4,334.8
		L785.4,334.8z"/>
</g>
</svg>
