<?xml version="1.0" encoding="utf-8"?>
<!-- Generator: Adobe Illustrator 21.0.0, SVG Export Plug-In . SVG Version: 6.00 Build 0)  -->
<svg version="1.1" id="Layer_1" xmlns="http://www.w3.org/2000/svg" xmlns:xlink="http://www.w3.org/1999/xlink" x="0px" y="0px"
	 viewBox="0 0 1903 1222" style="enable-background:new 0 0 1903 1222;" xml:space="preserve">
<style type="text/css">
	.st0{fill:#F2EDE5;}
</style>
<g id="Page-1_1_">
	<g id="Artboard">
		<path id="Page-1" class="st0" d="M315.6,555.9l-50.9,13.7c-14.2,3.8-29.2-3.5-34.9-17.1c-19.1-45.9-15.1-60.8-14.9-61.4
			c0.2-0.5,0.6-0.8,1.1-0.7l91.6,8.6c1.1,0.1,2.2-0.3,3-1.1c0.7-0.8,1.1-1.9,0.9-3c-0.2-1.5-1.5-2.7-3-2.9l-81.9-11.5
			c-8.8-1.2-15.7-8-17.1-16.8c-2.9-18.1-7.3-47.5-7.4-47.8c-0.1-0.4,0.1-0.7,0.4-1c0.3-0.2,0.7-0.3,1-0.2l77.3,26.7
			c0.9,0.3,1.8,0.2,2.7-0.2c0.8-0.5,1.4-1.3,1.6-2.2c0.3-1.6-0.6-3.2-2.1-3.8l-68.5-25.8c-9.2-3.4-15.3-12-15.5-21.8
			c-0.5-22.3,0.9-54.6,0.9-54.9s0.2-0.6,0.5-0.8c0.2-0.2,0.6-0.2,0.9-0.2l52.6,15.3c1,0.3,2,0.2,2.9-0.4c0.9-0.5,1.5-1.4,1.7-2.3
			c0.4-1.8-0.6-3.7-2.4-4.2L220,328c-5-1.7-9.1-5.4-11.3-10.3c-2.2-4.9-2.1-10.4,0.1-15.3c9.7-21.4,28.4-49.7,28.6-50l0,0
			c0-0.1,0-0.1,0.1-0.2c0.2-0.3,0.6-0.5,1-0.4c0.3,0.1,34.1,5.6,58.4,13.6c12.2,4.1,20.1,15.9,19.1,28.8c-1.4,16.9-3.3,39.1-5,49.5
			c-0.3,2.2,0.8,4.2,2.7,5.2c1.4,0.6,2.8,0.6,4.2,0s2.3-1.8,2.6-3.2c9.1-36.2,13.3-60.9,11.2-64.6c-0.2-0.4-0.2-1,0.2-1.4
			c0.4-0.3,1-0.3,1.4,0c0.3,0.2,29.5,23.6,45.9,38.5c7.3,6.6,10.1,16.5,7.6,26c-5.5,20.3-16.3,56.9-26.1,74.7
			c-0.8,1.4-0.4,3.2,0.9,4.2c0.8,0.6,1.8,0.9,2.8,0.6s1.8-0.9,2.2-1.8c6.5-13.4,27.9-58.9,31.1-77.9c0.1-0.4,0.4-0.7,0.7-0.9
			c0.4-0.1,0.8,0,1.1,0.3c0.2,0.2,20.9,22.8,34.2,37.9c5.5,6.2,7.1,14.9,4.2,22.8c-5.8,15.7-19.8,45.5-48.3,67.7
			c-2.1,1.6-2.7,4.5-1.4,6.9c0.8,1.4,2.2,2.4,3.8,2.7c1.6,0.3,3.2-0.2,4.5-1.2c16.2-13.7,53.9-48.6,54-79c0-0.5,0.3-0.9,0.7-1
			s0.9,0,1.2,0.4c2.6,3.4,62.1,81.8,37.3,126.1c-3.4,6.1-6.3,11.8-8.9,16.9c-8.5,16.9-14.5,28.4-28.4,33
			c-12.5,4.1-31.6,2.4-64.9-6.5l-0.1-0.1c-3.3,7.4-12.9,27.6-25.3,45.7c-4.2,6.1-9.1,9.5-14.7,11.3c-10.8,3.5-23.7,0.7-37.1-2.2
			c-6.5-1.4-13.1-2.8-19.6-3.5c-27-3-45-34.6-45.7-36c-0.2-0.3-0.2-0.6-0.1-1c0.2-0.3,0.3-0.6,0.7-0.6l72.3-19.7
			c1.2-0.3,2.2-1.1,2.7-2.2c0.6-1.1,0.6-2.4,0.2-3.5C320,556.5,317.7,555.3,315.6,555.9L315.6,555.9z M275.1,334.4
			c-2.6-2.1-7.1-4.7-10.4-6.3c-3-1.6-6.2-2.8-9.6-3.8c-0.4-0.1-0.7-0.2-1.1-0.3c0.3,0.1,0.7,0.2,1,0.3c3.3,1.1,6.4,2.6,9.3,4.2
			c2.9,1.7,5.6,3.7,8.1,6c0.6,0.6,1.4,1.3,2.3,2.1c0.8,0.6,1.6,1.4,2.4,2.2L275.1,334.4z M342.3,473.9c0,0.1,0.1,0.1,0.1,0.2
			l33.7,71.2c-5-12.1-11.7-28.2-19.5-46.6c-0.6-0.2-1-0.6-0.8-1.2c0-0.2,0.1-0.3,0.1-0.5c-0.6-1.5-1.3-3-1.9-4.6h-0.1
			c-0.6-0.2-0.9-0.7-0.7-1.3c0.1-0.2,0.1-0.3,0.1-0.5c-9.4-22.4-20-47.6-30.5-72.6l0,0c-0.6-0.1-1-0.6-0.9-1.2
			c0-0.2,0.1-0.5,0.2-0.7c-0.7-1.7-1.4-3.3-2.1-5c-0.2,0-0.2,0.1-0.4,0.1c-0.6-0.1-1-0.6-0.9-1.2c0.1-0.6,0.2-1,0.2-1.3
			c-27.5-65.1-53.7-126.3-56.3-130.1c-4.2-6-16.3-15.8-22.4-20.7L342.3,473.9z M308.6,405.3c-6.1-4.7-10.2-6.6-17-9.6l-0.9-0.4
			c-3.4-1.5-6.9-2.9-11.3-4.4c-3.4-1.2-7.2-2.4-11.5-3.7c-1.6-0.5-3.3-0.9-4.9-1.4l-1.6-0.4c-1.8-0.4-3.4-0.9-5.2-1.3
			c-3.9-0.9-7.8-1.8-11.7-2.5c-3.9-0.7-7.9-1.4-11.8-2c-4.6-0.6-8.4-1.1-11.9-1.4c-0.2,0-0.3,0.1-0.3,0.2s0.1,0.3,0.3,0.3
			c3.5,0.4,7.3,1,11.8,1.7c3.9,0.6,7.8,1.4,11.7,2.2c3.9,0.8,7.8,1.8,11.7,2.7c1.7,0.4,3.3,0.9,4.9,1.3l1.9,0.6
			c1.6,0.5,3.2,0.9,4.7,1.4c4.2,1.3,7.9,2.6,11.3,3.8c4.2,1.6,7.7,3,11,4.6c5.1,2.3,9.8,5.5,14.4,8.5c1.9,1.3,3.8,2.5,5.6,3.7l1,0.6
			L308.6,405.3z M341.5,474.3c-2.1-1.1-5.1-2.8-8.9-4.4c-3.7-1.6-7.7-3.1-12.8-4.6l-7.9-2.2c-1.7-0.4-3.4-0.9-5.2-1.2
			c-1.8-0.4-3.5-0.7-5.2-1l-2.9-0.5c-1.8-0.3-3.4-0.6-5.2-0.9c-4.4-0.7-8.9-1.3-13.3-1.7c-4.5-0.5-8.9-0.8-13.4-1.1
			c-4.5-0.2-8.9-0.5-13.4-0.6c-5.3-0.1-9.5-0.1-13.4,0.1c3.9-0.1,8.2,0.1,13.4,0.2c4.5,0.2,9,0.5,13.4,0.9c4.5,0.4,8.9,0.8,13.3,1.4
			c4.4,0.6,8.9,1.2,13.3,2c1.8,0.3,3.4,0.6,5.2,1l2.8,0.6c1.8,0.4,3.4,0.7,5.1,1.2c1.7,0.4,3.4,0.9,5,1.3l7.8,2.3
			c4.9,1.6,8.9,3.1,12.5,4.8c3.4,1.6,7.3,3.8,11.5,6.3l0.5,0.2l-1.9-4L341.5,474.3z M382.7,550c1.8-3.4,3.9-7,6.3-10.7
			c1.2-2,2.6-3.9,3.9-5.8l3-4.2c0.5-0.7,1-1.4,1.6-2.2l0.9-1.1c3.4-4.5,6.7-8.7,10-12.7c3.7-4.4,7.1-8.4,10.5-12.2
			c6.8-7.6,14.1-15.3,22.3-23.5c3.8-3.8,7.7-7.6,11.6-11.3c4.6-4.3,8.3-7.8,11.8-10.9l0.1-0.4c-0.1-0.1-0.2-0.1-0.4,0
			c-3.6,3.1-7.4,6.6-12.1,10.9c-4,3.7-8,7.4-11.7,11.1c-8.3,8.1-15.7,15.7-22.7,23.2c-3.5,3.8-7,7.7-10.8,12.1
			c-3.4,3.9-6.9,8.1-10.3,12.5l-0.9,1.1c-0.6,0.7-1,1.4-1.6,2.1l-3,4.1c-1.4,1.9-2.8,3.9-4.1,5.9l-0.8,1.1c-2,3-3.4,5-4.9,7.9
			C381.9,548,382.3,549,382.7,550L382.7,550z M369.9,533.7c-0.2-0.1-0.5-0.2-0.9-0.2c-2.4-0.7-7.9-2.5-12-3.4
			c-5.4-1.2-10.8-2.2-16.1-2.8c-5.6-0.6-11-1-16.3-1.3c-5.5-0.2-11-0.2-16.4,0s-10.9,0.6-16.3,1c-5.1,0.5-10.4,1-16.2,1.9
			c-5.4,0.8-10.8,1.7-16.1,2.7c-2.6,0.6-5.4,1-8,1.7c-2.5,0.6-5.2,1.2-7.9,1.9c-0.2,0.1-0.2,0.2-0.2,0.3c0,0.2,0.2,0.2,0.3,0.2
			c2.2-0.6,4.7-1.1,7.9-1.8c2.6-0.6,5.4-1,8-1.5c5.3-1,10.7-1.8,16.1-2.5c5.8-0.7,11.1-1.3,16.2-1.7c5.4-0.4,10.9-0.6,16.2-0.7
			c5.3-0.1,10.8,0,16.2,0.2c5.2,0.3,10.6,0.8,16.1,1.5c5.3,0.7,10.6,1.8,15.9,3c4.3,1.1,10,3.1,14.5,4.9c0.2-0.1,0.2,0,0.4,0
			L369.9,533.7z M357,491.6c0.5-1.7,1-3.2,1.6-5.1l0.7-2.2c1.6-4.6,3.4-9.3,5.5-13.8c2-4.4,4.2-8.9,6.5-13.5
			c2.2-4.4,4.6-8.9,7.1-13.2c2.4-4.3,5-8.7,7.6-12.9c2.5-4.1,5.1-8.4,7.9-12.7c2.7-4.2,5.5-8.5,8.2-12.5c3.2-4.8,6-8.7,8.5-12.3
			c0.1-0.1,0.1-0.2-0.1-0.3c-0.1-0.1-0.2-0.1-0.3,0.1c-2.6,3.5-5.4,7.4-8.8,12.1c-2.9,4.1-5.8,8.2-8.5,12.4
			c-2.9,4.3-5.6,8.5-8.1,12.6c-2.7,4.3-5.4,8.6-7.8,12.9c-2.6,4.3-5,8.8-7.3,13.1c-2.4,4.5-4.6,9-6.7,13.5
			c-2.2,4.6-4.2,9.3-5.8,13.9l-0.2,0.6c-0.9,2.3-0.9,2.3-1,2.8c-0.1,0.3-0.2,0.7-0.4,1.7C356.1,489.6,356.5,490.6,357,491.6
			L357,491.6z M323.4,411.7c0.5-2.4,1-4.9,1.8-7.6c1-3.8,2.3-7.7,3.8-11.9c1.3-3.5,2.8-7.3,4.6-11.7c3.2-7.3,6.9-15,10.9-22.7
			c1.9-3.7,4-7.4,6.1-11.1c2.4-4.2,4.5-7.7,6.5-10.9c0.2-0.2,0.1-0.5-0.2-0.6c-0.2-0.2-0.5-0.1-0.6,0.2c-2.1,3.2-4.2,6.6-6.6,10.8
			c-2.2,3.7-4.2,7.3-6.3,11c-4.2,7.7-8.1,15.3-11.3,22.6c-1.9,4.3-3.5,8.1-4.9,11.7c-1.6,4.2-3,8.1-4.1,12.1
			c-0.5,1.6-0.7,2.2-0.9,2.8c-0.2,0.5-0.2,0.8-0.4,1.6C322.4,409.2,322.9,410.4,323.4,411.7L323.4,411.7z M285.4,321.5
			c0.6-1.8,1.2-3.8,1.8-5.4c-0.7,1.7-1.5,3.5-2,4.9C285.2,321.2,285.4,321.4,285.4,321.5L285.4,321.5z M387.5,567.9
			c68.3,18,74.3,6.1,90.5-25.6c2.6-5.1,5.5-10.9,8.9-17c21.9-38.8-25.3-107.5-35.2-121.2c-2.5,30.5-38.9,64.2-54.9,77.6
			c-1.8,1.4-4,2.1-6.2,1.6c-2.2-0.4-4.2-1.8-5.2-3.8c-1.8-3.3-1-7.3,2-9.5c28.1-21.8,42-51.1,47.8-66.7c2.6-7,1.1-14.9-3.8-20.6
			c-11.3-12.8-27.8-30.9-32.8-36.3c-4.2,19.7-22.9,59.6-31.1,76.3c-0.7,1.5-2.1,2.6-3.7,3s-3.3,0-4.6-1c-2.2-1.7-2.7-4.6-1.4-7
			c9.8-17.6,20.5-54.1,26.1-74.2c2.4-8.6-0.3-17.7-7-23.8c-13.7-12.1-36.3-30.4-43.5-36.3c0.7,11.2-6.8,43.2-11.7,62.9
			c-0.5,2.1-1.9,3.8-3.8,4.6s-4.1,0.9-6,0c-2.8-1.3-4.4-4.4-3.9-7.4c1.7-10.1,3.7-32.4,5-49.2c1-11.9-6.3-22.8-17.7-26.6
			c-19.3-6.3-44.6-11.1-54.2-12.8c6,4.7,18.7,15.1,23.3,21.5c1.4,1.9,8.5,18,18.7,41.6c0.6-1.9,1.3-3.9,1.8-5.4
			c0.4-1.1,0.9-2.2,1.4-3.2c0.4-1,1-2,1.7-3.2c0.5-0.8,1.6-1.1,2.4-0.6c0.4,0.2,0.7,0.6,0.9,1.1s0.1,1-0.2,1.4
			c-0.4,0.8-0.9,1.8-1.4,2.9c-0.4,1-0.8,2-1.1,3c-0.6,2-2.2,8.6-2.6,11c9.6,22.4,21.5,50.3,33.6,79.2c0.2-0.4,0.3-1,0.6-1.8
			c1.1-3.9,2.5-7.8,4.1-12.1c1.4-3.6,3-7.4,4.9-11.7c3.3-7.3,7.1-15,11.3-22.7c2-3.7,4.1-7.3,6.2-11c2.5-4.2,4.6-7.7,6.6-10.8
			c0.8-1.2,2.3-1.5,3.5-0.8s1.6,2.3,0.8,3.6c-1.9,3.1-4,6.6-6.3,10.7c-2.1,3.6-4.1,7.3-6,10.9c-4,7.6-7.6,15.2-10.8,22.4
			c-1.8,4.2-3.3,8-4.6,11.5c-1.5,4.2-2.7,8-3.8,11.7c-1,3.8-1.8,7.3-2.3,10.5c10.3,24.4,20.7,49.1,30,71.3c0.2-0.4,0.3-1,0.7-1.9
			l0.2-0.6c1.8-4.6,3.8-9.4,6-14.1c2.2-4.5,4.5-9.1,6.9-13.7c2.4-4.4,5-8.9,7.5-13.3c2.6-4.2,5.2-8.6,8-12.9
			c2.6-4.1,5.4-8.4,8.3-12.7c2.8-4.2,5.7-8.4,8.6-12.5c3.4-4.8,6.2-8.7,8.9-12.3c0.8-1,2.2-1.2,3.3-0.5s1.3,2.2,0.5,3.3
			c-2.6,3.6-5.4,7.5-8.6,12.3c-2.8,4.1-5.6,8.3-8.3,12.5c-2.8,4.4-5.5,8.6-8,12.8c-2.6,4.3-5.2,8.6-7.7,12.9
			c-2.5,4.3-4.9,8.8-7.2,13.2c-2.3,4.5-4.6,9-6.6,13.4c-2.1,4.6-3.9,9.3-5.5,13.7l-0.8,2.2c-1,2.9-1.6,4.6-2.3,7.7
			c8.1,19.3,15.1,36.2,20.4,48.7c1.3-2.2,2.6-4.1,4.2-6.6l0.8-1.1c1.4-2,2.8-4,4.2-5.9l3-4.1c0.6-0.7,1.1-1.4,1.7-2.1l0.9-1.1
			c3.4-4.4,7-8.6,10.5-12.6c3.8-4.4,7.4-8.4,10.9-12.1c7-7.5,14.5-15.2,22.9-23.2c3.8-3.7,7.8-7.4,11.9-11.2
			c4.7-4.3,8.5-7.7,12.2-10.9c1-0.9,2.5-0.7,3.4,0.2c0.4,0.5,0.6,1,0.6,1.8c-0.1,0.6-0.3,1.2-0.8,1.7c-3.6,3.1-7.3,6.6-11.9,10.9
			c-3.9,3.7-7.8,7.5-11.7,11.3c-8.2,8.1-15.6,15.7-22.4,23.3c-3.4,3.8-7,7.7-10.6,12.1c-3.4,3.9-6.7,8.1-10.1,12.5l-0.9,1.1
			c-0.6,0.7-1,1.4-1.5,2.1l-3,4.2c-1.4,1.9-2.6,3.8-3.8,5.7c-2.9,4.4-5.2,8.4-7.1,12.1c3.2,7.7,5.3,12.7,5.8,14.1
			c0.1,0.2,0.1,0.6,0,0.8c0,0-0.2,0.3-0.3,0.7L387.5,567.9z M322.2,563.4c-0.8,1.6-2.3,2.9-4.1,3.3L247.2,586
			c3.5,5.8,20.3,31.2,43.4,33.8c6.6,0.7,13.3,2.2,19.8,3.6c19.7,4.2,38.2,8.2,49.6-8.2c13.2-19.1,23-40.7,25.6-46.7l-13.5-28.6
			c-4.8-1.8-11.8-4.6-16.9-5.8c-5.2-1.3-10.5-2.2-15.7-3c-5.4-0.7-10.8-1.3-15.9-1.5c-5.4-0.2-10.8-0.4-16.1-0.3
			c-5.4,0.1-10.7,0.3-16.1,0.7c-5,0.4-10.2,0.9-16.1,1.6c-5.4,0.6-10.7,1.5-16,2.4c-2.6,0.5-5.3,1-7.9,1.5c-3.2,0.6-5.6,1.2-7.8,1.8
			c-1.3,0.3-2.6-0.4-2.9-1.7c-0.2-0.6-0.1-1.3,0.2-1.8c0.3-0.6,0.9-1,1.4-1.1c2.8-0.7,5.5-1.4,8-1.9c2.6-0.6,5.4-1.1,8.1-1.7
			c5.4-1,10.8-1.9,16.1-2.7c5.8-0.8,11.2-1.4,16.3-1.9c5.5-0.5,11-0.8,16.4-1s10.9-0.2,16.5,0.1c5.4,0.2,10.9,0.6,16.5,1.3
			c5.4,0.7,10.9,1.7,16.4,2.9c3.6,0.9,8.4,2.3,11.1,3.2l-23.4-49.6l-3-1.4c-4.2-2.6-7.9-4.6-11.3-6.2c-3.5-1.6-7.3-3.1-12.1-4.7
			l-7.7-2.3c-1.7-0.5-3.3-0.9-5-1.3c-1.7-0.4-3.4-0.8-5.1-1.1l-2.7-0.6c-1.7-0.3-3.4-0.6-5.1-1c-4.3-0.8-8.8-1.4-13.1-2
			c-4.4-0.6-8.8-1-13.3-1.4c-4.4-0.4-8.9-0.6-13.3-0.9c-5.2-0.2-9.4-0.3-13.3-0.2c-1.2,0-2.2-1-2.2-2.1c0-1.2,0.9-2.2,2.1-2.2
			c4-0.1,8.3-0.2,13.5,0c4.5,0.1,9,0.2,13.5,0.6c4.5,0.2,9,0.6,13.5,1.1s8.9,1,13.4,1.7c1.8,0.2,3.4,0.6,5.2,0.9l2.9,0.6
			c1.8,0.3,3.5,0.6,5.3,1s3.4,0.8,5.2,1.2l8,2.2c5,1.5,9.2,3,12.9,4.6c2.6,1.1,5,2.3,6.8,3.3l-27.2-57.3l-3.7-2.2
			c-1.8-1.2-3.8-2.4-5.7-3.7c-4.5-3-9.1-6.1-14.1-8.4c-3.2-1.5-6.6-2.9-10.8-4.5c-3.4-1.3-7-2.5-11.1-3.8c-1.5-0.5-3.1-1-4.6-1.4
			l-1.9-0.5c-1.6-0.4-3.2-0.9-4.8-1.3c-3.8-1-7.6-1.8-11.5-2.6c-3.8-0.8-7.7-1.5-11.6-2.2c-4.6-0.7-8.2-1.3-11.7-1.7
			c-1.3-0.2-2.2-1.4-2.2-2.6c0.2-1.4,1.3-2.3,2.6-2.2c3.5,0.3,7.3,0.8,12,1.4c3.9,0.6,7.9,1.2,11.8,2c3.9,0.7,7.9,1.6,11.7,2.5
			c1.8,0.4,3.4,0.8,5.2,1.3l1.6,0.4c1.7,0.4,3.3,0.9,4.9,1.4c4.3,1.2,8.1,2.4,11.5,3.7c4.4,1.5,8,3,11.3,4.5l0.9,0.4
			c5.7,2.5,9.5,4.2,14.1,7.4l-26.4-56.1c-0.2-0.1-0.3-0.2-0.4-0.3c-1.3-1.8-4-4.3-6.2-6.3c-0.9-0.8-1.7-1.5-2.2-2.1
			c-2.3-2.2-4.8-4.2-7.4-5.8c-2.6-1.7-5.5-3-8.5-4.2c-1.5-0.6-3-1-4.6-1.4c-0.8-0.2-1.5-0.4-2.3-0.5c-0.8-0.2-1.5-0.3-2.3-0.3
			c-1-0.1-1.8-1-1.7-1.9c0-0.5,0.2-1,0.6-1.3s0.9-0.5,1.4-0.5c1,0,1.8,0.2,2.6,0.2s1.8,0.2,2.6,0.4c1.7,0.3,3.4,0.7,5,1.3
			c3.4,1,6.6,2.3,9.6,4c1.7,0.9,4.5,2.6,7,4.2L237,255.3c-4,5.8-19,29.5-27.4,48.1c-1.9,4.3-1.9,9.3-0.1,13.6
			c1.9,4.3,5.5,7.7,10,9.2l36.1,12.1c2.8,1,4.4,3.8,3.8,6.7c-0.3,1.5-1.4,2.9-2.7,3.8c-1.4,0.8-3,1-4.6,0.6l-51.2-15
			c-0.2,6.4-1.3,33.9-0.8,53.4c0.2,8.9,5.8,16.7,14.1,19.9l68.6,25.9c2.5,1,4,3.7,3.4,6.2c-0.3,1.5-1.3,2.8-2.6,3.6
			c-1.4,0.7-3,0.9-4.4,0.4l-75.6-26.3c1,6.6,4.7,30.5,7.2,46.1c1.3,7.9,7.4,13.9,15.3,15l81.6,11.4c2.5,0.3,4.4,2.2,4.8,4.6
			c0.3,1.8-0.2,3.5-1.4,4.8c-1.2,1.3-3,2-4.7,1.8l-90.5-8.5c-0.5,3.7-1.2,20.1,15.1,59.2c5.3,12.6,19.2,19.5,32.4,16l50.9-13.7
			c3.2-0.9,6.6,0.9,7.7,4C323.1,559.9,323,561.8,322.2,563.4L322.2,563.4z"/>
	</g>
</g>
</svg>
